<svg xmlns="http://www.w3.org/2000/svg" viewBox="0 0 220 220" fill="none" role="img" aria-label="Rox Cleaning lotus icon">
  <!-- Rox Cleaning brand lotus. Teal cradle, two rose side petals, bright magenta center petal. -->
  <!-- Teal base leaves (back) -->
  <path d="M110 184c28 2 56-4 82-26-24 8-54 10-82 12z" fill="#0F7173"/>
  <path d="M110 184c-28 2-56-4-82-26 24 8 54 10 82 12z" fill="#0F7173"/>
  <!-- Side petals (rose) -->
  <path d="M110 168c18-18 40-48 66-72 2 28-4 54-28 70-13 8-27 8-38 2z" fill="#C2186F"/>
  <path d="M110 168c-18-18-40-48-66-72-2 28 4 54 28 70 13 8 27 8 38 2z" fill="#C2186F"/>
  <!-- Center petal (bright magenta) -->
  <path d="M110 40c28 38 40 76 30 106-7 20-19 30-30 34-11-4-23-14-30-34-10-30 2-68 30-106z" fill="#E91E8C"/>
</svg>
