<svg xmlns="http://www.w3.org/2000/svg" viewBox="0 0 232 64" fill="none" role="img" aria-label="Rox Cleaning logo">
  <!-- Placeholder horizontal logo in Rox brand colors. Replace this file with the real rox_horizontal.svg (keep the same filename). -->
  <g>
    <path d="M6 28.5c8.3-.9 16.6 2.6 22.3 11.8C17.4 41.6 10 36.8 6 28.5z" fill="#FFD6EC"/>
    <path d="M55 28.5c-4 8.3-11.4 13.1-22.3 11.8C38.4 31.1 46.7 27.6 55 28.5z" fill="#FFD6EC"/>
    <path d="M15.2 16.7c7.9 2.2 13.6 7.4 14 21-10.9-3.5-15.3-11.4-14-21z" fill="#E91E8C" opacity="0.55"/>
    <path d="M45.8 16.7c1.3 9.6-3.1 17.5-14 21 .4-13.6 6.1-18.8 14-21z" fill="#E91E8C" opacity="0.55"/>
    <path d="M30.5 10.1c5.7 7 8.3 14.5 0 26.3-8.3-11.8-5.7-19.3 0-26.3z" fill="#E91E8C"/>
    <path d="M11.2 45.2c12.7 5.7 25.9 5.7 38.6 0-4.4 7.5-11.4 11.4-19.3 11.4s-14.9-3.9-19.3-11.4z" fill="#0F7173"/>
  </g>
  <text x="66" y="38" font-family="Poppins, ui-sans-serif, system-ui, sans-serif" font-weight="700" font-size="30" fill="#1B2530" letter-spacing="1">rox</text>
  <text x="67" y="54" font-family="Poppins, ui-sans-serif, system-ui, sans-serif" font-weight="500" font-size="11" fill="#0F7173" letter-spacing="4.5">CLEANING</text>
</svg>
