<svg xmlns="http://www.w3.org/2000/svg" viewBox="0 0 64 64" fill="none" role="img" aria-label="Rox Cleaning lotus icon">
  <!-- Placeholder lotus icon in Rox brand colors. Replace this file with the real rox_icone_lotus.svg (keep the same filename). -->
  <path d="M4 27c9.5-1 19 3 25.5 13.5C17 42 8.5 36.5 4 27z" fill="#FFD6EC"/>
  <path d="M60 27c-4.5 9.5-13 15-25.5 13.5C41 30 50.5 26 60 27z" fill="#FFD6EC"/>
  <path d="M14.5 13.5c9 2.5 15.5 8.5 16 24-12.5-4-17.5-13-16-24z" fill="#E91E8C" opacity="0.55"/>
  <path d="M49.5 13.5c1.5 11-3.5 20-16 24 .5-15.5 7-21.5 16-24z" fill="#E91E8C" opacity="0.55"/>
  <path d="M32 6c6.5 8 9.5 16.5 0 30-9.5-13.5-6.5-22 0-30z" fill="#E91E8C"/>
  <path d="M10 46c14.5 6.5 29.5 6.5 44 0-5 8.5-13 13-22 13s-17-4.5-22-13z" fill="#0F7173"/>
</svg>
